<svg xmlns="http://www.w3.org/2000/svg" xmlns:xlink="http://www.w3.org/1999/xlink" width="478" height="478" viewBox="0 0 478 478">
  <defs>
    <clipPath id="clip-path">
      <rect id="Rectangle_14" data-name="Rectangle 14" width="264" height="195" rx="13" fill="#f5f5f5"/>
    </clipPath>
  </defs>
  <g id="Group_24" data-name="Group 24" transform="translate(-599 -13284)">
    <path id="Union_3" data-name="Union 3" d="M24,48A24,24,0,1,1,24,0h95a24,24,0,1,1,0,48Z" transform="translate(934 13491.968)" fill="#f5f5f5"/>
    <g id="Group_23" data-name="Group 23" transform="translate(726 13409.89)">
      <path id="Path_3" data-name="Path 3" d="M13,0H251a13,13,0,0,1,13,13V182a13,13,0,0,1-13,13H13A13,13,0,0,1,0,182V13A13,13,0,0,1,13,0Z" fill="#f5f5f5"/>
      <g id="Mask_Group_1" data-name="Mask Group 1" clip-path="url(#clip-path)">
        <g id="Group_22" data-name="Group 22" transform="translate(-25.5 0)">
          <path id="Polygon_1" data-name="Polygon 1" d="M89,0l89,133H0Z" transform="translate(156.5 178) rotate(-90)" fill="#e8e8e8"/>
          <path id="Polygon_2" data-name="Polygon 2" d="M89,0l89,133H0Z" transform="translate(157.5) rotate(90)" fill="#e8e8e8"/>
          <path id="Polygon_3" data-name="Polygon 3" d="M157.359,0,314.719,129.987H0Z" transform="translate(314.719 130.456) rotate(180)"/>
        </g>
      </g>
    </g>
    <circle id="Ellipse_1" data-name="Ellipse 1" cx="24" cy="24" r="24" transform="translate(670 13284)" fill="#f5f5f5"/>
    <path id="Union_1" data-name="Union 1" d="M24,48A24,24,0,1,1,24,0H198a24,24,0,1,1,0,48Z" transform="translate(741 13284)" fill="#f5f5f5"/>
    <path id="Union_2" data-name="Union 2" d="M24,48A24,24,0,1,1,24,0h95a24,24,0,1,1,0,48Z" transform="translate(659 13619.561)" fill="#f5f5f5"/>
    <rect id="Rectangle_18" data-name="Rectangle 18" width="175" height="33" rx="16.5" transform="translate(771 13729)" fill="#f5f5f5"/>
    <g id="Polygon_4" data-name="Polygon 4" transform="translate(608 13368) rotate(-90)" fill="none">
      <path d="M19,0,38,33H0Z" stroke="none"/>
      <path d="M 19 10.02074813842773 L 8.648309707641602 28 L 29.3516902923584 28 L 19 10.02074813842773 M 19 0 L 38 33 L 0 33 L 19 0 Z" stroke="none"/>
    </g>
    <g id="Polygon_5" data-name="Polygon 5" transform="translate(1029 13624.374) rotate(-90)" fill="none">
      <path d="M19,0,38,33H0Z" stroke="none"/>
      <path d="M 19 10.02074813842773 L 8.648309707641602 28 L 29.3516902923584 28 L 19 10.02074813842773 M 19 0 L 38 33 L 0 33 L 19 0 Z" stroke="none"/>
    </g>
    <g id="Ellipse_8" data-name="Ellipse 8" transform="translate(1022 13330)" fill="none" stroke="#000" stroke-width="5">
      <circle cx="12" cy="12" r="12" stroke="none"/>
      <circle cx="12" cy="12" r="9.5" fill="none"/>
    </g>
    <g id="Rectangle_19" data-name="Rectangle 19" transform="translate(905 13359)" fill="none" stroke="#000" stroke-width="4">
      <rect width="18" height="18" stroke="none"/>
      <rect x="2" y="2" width="14" height="14" fill="none"/>
    </g>
    <g id="Rectangle_20" data-name="Rectangle 20" transform="translate(825 13682)" fill="none" stroke="#000" stroke-width="4">
      <rect width="15" height="15" stroke="none"/>
      <rect x="2" y="2" width="11" height="11" fill="none"/>
    </g>
    <g id="Ellipse_9" data-name="Ellipse 9" transform="translate(599 13631.515)" fill="none" stroke="#000" stroke-width="5">
      <circle cx="9.5" cy="9.5" r="9.5" stroke="none"/>
      <circle cx="9.5" cy="9.5" r="7" fill="none"/>
    </g>
  </g>
</svg>
