<svg xmlns="http://www.w3.org/2000/svg" width="89" height="80" viewBox="0 0 89 80">
  <path id="designer" d="M74.035,73.444l7.794-7,2.339,9.106ZM47.513,50.555,44.563,47.9l-8.852-7.957-2.95-2.652L14.5,20.88l8.85-7.957L41.611,29.338l2.952,2.652,8.85,7.957,2.95,2.652L79.407,63.312l-8.85,7.957ZM18.269,71.535l-6.991,2.693L6.422,69.862l3-6.288L32.758,42.6l8.852,7.957ZM5.635,12.912a1.745,1.745,0,0,1,.013-2.642l5.9-5.3a2.246,2.246,0,0,1,2.94-.011L20.4,10.27l-8.852,7.957Zm63.7-3.19,8.852,7.955L56.362,37.295l-8.85-7.959ZM80.4,3.752c.006,0-.01,0,.006.011l4.408,3.962c.013.011.013,0,.013.006l-5.9,5.305L74.5,9.059Zm4.907,59.56L59.315,39.946,76.656,24.359l1.625,1.463a1.746,1.746,0,0,1,0,2.657L70.09,35.836a1.745,1.745,0,0,0,0,2.652,2.253,2.253,0,0,0,2.95,0l8.186-7.355a5.236,5.236,0,0,0,.006-7.962l-1.627-1.463,1.531-1.378,2.95-2.652L81.875,15.69l5.9-5.307a3.487,3.487,0,0,0-.013-5.311L83.359,1.109A4.5,4.5,0,0,0,77.452,1.1l-5.9,5.307-2.214-1.99-2.95,2.652h0v0L44.563,26.684,17.437,2.3A6.754,6.754,0,0,0,8.6,2.315l-5.9,5.3a5.23,5.23,0,0,0-.013,7.946L8.6,20.879l.563.506,2.387,2.147L29.809,39.946,5.9,61.437,1.475,70.719l2.95,2.652L0,77.348,2.95,80l4.425-3.977,2.952,2.652L20.654,74.7,44.563,53.206,67.605,73.92l2.95,2.652,15.113,3.135c2.228.461,3.647-.8,3.127-2.813Z" transform="translate(0 0)" fill="#fff" fill-rule="evenodd"/>
</svg>
