<svg id="Website" xmlns="http://www.w3.org/2000/svg" width="83.333" height="80" viewBox="0 0 83.333 80">
  <path id="frontend" d="M79.365,73.986A2.009,2.009,0,0,1,77.373,76H5.96a2,2,0,0,1-1.992-2.014V20h75.4V73.986ZM5.96,4H77.373a2,2,0,0,1,1.99,2s0,.008,0,.014V16H3.968V6.014c0-.006,0-.01,0-.014A2.008,2.008,0,0,1,5.96,4ZM77.373,0a5.981,5.981,0,0,1,5.958,6s0,.01,0,.014h0V73.986A5.993,5.993,0,0,1,77.373,80H5.96A5.983,5.983,0,0,1,0,73.986H0V6.007H0A6,6,0,0,1,3.968.37,5.834,5.834,0,0,1,5.96,0H77.373ZM45.635,28.386a1.942,1.942,0,0,0-.738.884l-.282.73-6.7,17.244L31.883,62.8a2,2,0,0,0,1.125,2.59,1.981,1.981,0,0,0,2.571-1.132l2.339-6.032,7.716-19.878,2.956-7.616a2.043,2.043,0,0,0-1.123-2.592A1.936,1.936,0,0,0,45.635,28.386Zm-21.023,6.2-2.786,2.808L14.8,44.474a2.009,2.009,0,0,0,0,2.828l7.026,7.082,2.786,2.81a1.974,1.974,0,0,0,2.806,0,2.009,2.009,0,0,0,0-2.828l-5.591-5.638-2.817-2.84,2.817-2.838,5.591-5.636a2.009,2.009,0,0,0,0-2.828A1.971,1.971,0,0,0,24.612,34.586Zm31.525,0a2.009,2.009,0,0,0,0,2.828l2.514,2.534,5.893,5.94-5.893,5.944-2.514,2.534a2.009,2.009,0,0,0,0,2.828,1.945,1.945,0,0,0,2.514.194,1.8,1.8,0,0,0,.292-.194L68.754,47.3a2.009,2.009,0,0,0,0-2.828l-9.812-9.888a2.129,2.129,0,0,0-.292-.2A1.945,1.945,0,0,0,56.137,34.586ZM9.921,8A2,2,0,1,0,11.9,10,1.99,1.99,0,0,0,9.921,8Zm5.952,0a2,2,0,1,0,1.984,2A1.99,1.99,0,0,0,15.873,8Zm5.952,0a2,2,0,1,0,1.984,2A1.99,1.99,0,0,0,21.825,8Z" fill="#fff" fill-rule="evenodd"/>
</svg>
