<svg xmlns="http://www.w3.org/2000/svg" width="64" height="64" viewBox="0 0 64 64">
  <path id="github" d="M32,0A32,32,0,1,0,64,32,31.966,31.966,0,0,0,32,0Zm5.4,38.1c.7.6,1.2,2.7,1.2,3.6v8.5H29V45.4c-6.6,1.4-8.5-3.6-8.5-3.6a14.851,14.851,0,0,0-2.4-3.6c-2.4-1.4,0-1.2,0-1.2a4.439,4.439,0,0,1,3.6,2.4A5.78,5.78,0,0,0,29,41.8a5.757,5.757,0,0,1,1.2-3.6c-5.3-.6-9.7-3.6-9.7-9.7s1.2-7.3,2.4-8.5a7.706,7.706,0,0,1,0-6.1s2.4,0,4.8,3.6c1.2-1.2,4.8-1.2,6.1-1.2,1.2,0,4.9,0,6.1,1.2,2.4-3.6,4.8-3.6,4.8-3.6a7.269,7.269,0,0,1,0,6.1c1.2,1.2,2.4,2.4,2.4,8.5,0,5.9-4.4,9-9.7,9.6Z"/>
</svg>
