<svg xmlns="http://www.w3.org/2000/svg" width="64" height="64" viewBox="0 0 64 64">
  <path id="twitter" d="M32,0A32,32,0,1,0,64,32,32.094,32.094,0,0,0,32,0ZM49.4,21.4c-.2.2-1,1.2-1.8,2C46.2,24.8,46,25,46,26.2A24.238,24.238,0,0,1,44.2,34a21.826,21.826,0,0,1-8.4,10,21.82,21.82,0,0,1-16.6,2,26.088,26.088,0,0,1-5-2.2,11.693,11.693,0,0,1,2-.2,13.485,13.485,0,0,0,6.8-2l1.4-.8L23,40a8.452,8.452,0,0,1-4.8-4.2c-.2-.6-.2-.6,1.4-.6H21l-1.2-.6a8.792,8.792,0,0,1-3.4-3.2,26.357,26.357,0,0,1-1-3.6,4.284,4.284,0,0,1,1.2.2c1.8.6,2,.4,1-.6A7.464,7.464,0,0,1,16,19.8l.4-1.2L18,20.2a20.269,20.269,0,0,0,12.2,6l1.2.2V25.2a7.489,7.489,0,0,1,5-7.4,10.9,10.9,0,0,1,4.4-.2A8.147,8.147,0,0,1,43,18.8l1.2.8,1.4-.4a13.2,13.2,0,0,0,2.2-.8,8.409,8.409,0,0,0,1-.4A7.936,7.936,0,0,1,47,20.8c-1,1.2-.8,1.2,1.4.4,1.4-.4,1.4-.4,1,.2Z"/>
</svg>
